PathFileType	4	(X/Y/Z)	Kaydara	
DataRate	CameraRate	NumFrames	NumMarkers	Units	OrigDataRate	OrigDataStartFrame	OrigNumFrames	
240.00	240.00	4	72	mm	240.00	178	355	
Frame#	Time	Hips			RightUpLeg			RightLeg			RightFoot			RightFoot_End			LeftUpLeg			LeftLeg			LeftFoot			LeftFoot_End			Spine			Spine1			Spine2			Spine3			Neck			Head			Head_End			RightShoulder			RightArm			RightForeArm			RightHand			RightHandThumb1			RightHandThumb2			RightHandThumb3			RightHandThumb3_End			RightInHandIndex			RightHandIndex1			RightHandIndex2			RightHandIndex3			RightHandIndex3_End			RightInHandMiddle			RightHandMiddle1			RightHandMiddle2			RightHandMiddle3			RightHandMiddle3_End			RightInHandRing			RightHandRing1			RightHandRing2			RightHandRing3			RightHandRing3_End			RightInHandPinky			RightHandPinky1			RightHandPinky2			RightHandPinky3			RightHandPinky3_End			LeftShoulder			LeftArm			LeftForeArm			LeftHand			LeftHandThumb1			LeftHandThumb2			LeftHandThumb3			LeftHandThumb3_End			LeftInHandIndex			LeftHandIndex1			LeftHandIndex2			LeftHandIndex3			LeftHandIndex3_End			LeftInHandMiddle			LeftHandMiddle1			LeftHandMiddle2			LeftHandMiddle3			LeftHandMiddle3_End			LeftInHandRing			LeftHandRing1			LeftHandRing2			LeftHandRing3			LeftHandRing3_End			LeftInHandPinky			LeftHandPinky1			LeftHandPinky2			LeftHandPinky3			LeftHandPinky3_End			
		X1	Y1	Z1	X2	Y2	Z2	X3	Y3	Z3	X4	Y4	Z4	X5	Y5	Z5	X6	Y6	Z6	X7	Y7	Z7	X8	Y8	Z8	X9	Y9	Z9	X10	Y10	Z10	X11	Y11	Z11	X12	Y12	Z12	X13	Y13	Z13	X14	Y14	Z14	X15	Y15	Z15	X16	Y16	Z16	X17	Y17	Z17	X18	Y18	Z18	X19	Y19	Z19	X20	Y20	Z20	X21	Y21	Z21	X22	Y22	Z22	X23	Y23	Z23	X24	Y24	Z24	X25	Y25	Z25	X26	Y26	Z26	X27	Y27	Z27	X28	Y28	Z28	X29	Y29	Z29	X30	Y30	Z30	X31	Y31	Z31	X32	Y32	Z32	X33	Y33	Z33	X34	Y34	Z34	X35	Y35	Z35	X36	Y36	Z36	X37	Y37	Z37	X38	Y38	Z38	X39	Y39	Z39	X40	Y40	Z40	X41	Y41	Z41	X42	Y42	Z42	X43	Y43	Z43	X44	Y44	Z44	X45	Y45	Z45	X46	Y46	Z46	X47	Y47	Z47	X48	Y48	Z48	X49	Y49	Z49	X50	Y50	Z50	X51	Y51	Z51	X52	Y52	Z52	X53	Y53	Z53	X54	Y54	Z54	X55	Y55	Z55	X56	Y56	Z56	X57	Y57	Z57	X58	Y58	Z58	X59	Y59	Z59	X60	Y60	Z60	X61	Y61	Z61	X62	Y62	Z62	X63	Y63	Z63	X64	Y64	Z64	X65	Y65	Z65	X66	Y66	Z66	X67	Y67	Z67	X68	Y68	Z68	X69	Y69	Z69	X70	Y70	Z70	X71	Y71	Z71	X72	Y72	Z72	

178	0.738	921.0129	906.651	56.2195	970.9304568821299	879.8624356154199	-6.300904511920336	894.0930151087233	475.2796936705049	-78.6735885601289	927.5145990558867	102.86435812651189	-172.08299623852497	853.339055577111	25.174866866186342	-14.008005601877745	878.8213682497487	904.7025980761172	130.42979284371862	820.4459049638256	502.3657934106693	230.6784405909181	760.4518208222005	71.46903945824947	294.35533429592357	633.2532183151397	-9.44718933242932	177.312331985765	884.7415664649552	1035.3140281675899	5.6678188616017655	836.5033731086953	1105.111521368983	-41.08044705130879	781.0509436576253	1172.3529298078388	-91.50318825007808	720.5622810478142	1227.4057145322683	-142.57891577827056	655.3437547744497	1286.1601368287957	-196.4747812336929	594.884575064714	1339.5918893424644	-244.54449721507305	473.4989013343562	1431.834402788316	-290.14037944852566	691.4192197615247	1262.5385992132246	-199.64927652801748	727.8854575775028	1243.08046708538	-293.35059716184344	732.7690736591171	1015.88726266161	-255.12565793391923	748.9744783576664	864.2972304518662	-311.89874090791415	755.7159382897848	866.2438522117682	-326.320240107065	748.6359231893297	861.5696236518859	-337.1953568484952	743.4282979969609	855.7607683169679	-343.6309672529807	738.8498772698647	848.733523046612	-348.02267356770227	756.7816462971718	857.0650162123966	-323.782924984272	761.4461243491282	837.4191504395326	-336.7794530274133	756.9974975931789	824.8318392376459	-344.65742581216784	749.8719571094875	821.2061638178938	-348.8333509256444	741.0333107428501	821.0381260868568	-351.802876293014	755.4998846644869	850.8545990135611	-320.18041491540095	759.358360109165	828.3330977015157	-330.90857805268627	754.3101640025877	813.8434598126971	-338.9860600576604	745.6204142887684	809.1072238080019	-343.7751230955879	735.9040950616065	808.747379666462	-346.9032466683757	754.55253110217	846.9366584422452	-317.31058498841486	757.4141402917624	823.2593409253179	-324.45438848531484	752.8090206466948	809.8949215206761	-330.9473410519884	744.3181519038945	804.9360258411116	-335.27606350398503	735.1307441431617	804.4126751652465	-338.0795306143484	752.7169904357077	843.2392159733147	-313.57134713772695	754.4707637433432	819.130640837561	-317.84604053624076	750.4501388932026	807.3853985055321	-322.1601276116899	744.0957690429136	803.2635813972771	-324.889299519307	735.8645203704623	802.5094768651331	-327.1262728852197	662.3812473530072	1271.4893922102713	-156.27032980546647	627.0917447472741	1241.9889987756892	-64.51232837841476	707.602851013225	1050.0897743591418	-156.79356816338716	777.3253683610607	890.7938937355519	-235.97484708753785	765.2765755463641	894.9361196815938	-251.59844701160705	761.1721696768182	882.0201793233718	-273.4038189829559	758.8230626940704	870.2877399926214	-288.13544719739	757.3003319610499	858.164809148895	-300.02850245716695	765.1448309016617	886.3429140536487	-250.894537406279	752.1067605600394	865.743145748565	-274.2279194395269	747.5826909366267	846.9155930245788	-293.1962178798099	747.8640081484244	836.5733995196227	-305.0465526000006	750.1838184842372	828.9324838439547	-314.89402346531614	767.1998143567027	879.4000482884264	-248.97837459004433	755.5931107431054	855.553538066124	-270.6998249302113	750.9755672113307	834.1540356929389	-291.0729029636575	751.4681188371023	821.266338868319	-305.21387711773764	754.080877349518	812.7063731823143	-315.91295819143363	768.9389108170518	875.044211392148	-247.003132416753	759.9136498692963	849.9608824952462	-264.67901000024955	756.2339494628512	830.4725412053041	-282.0700320658713	756.8922642299498	817.5971188364633	-295.51563417869846	759.4357277741069	809.3380937510804	-305.4832907741788	771.6791312784742	870.4346175256403	-244.25575742976557	764.9338200011614	844.659130902856	-258.69436152731765	762.565143806696	827.8578304941085	-271.97217672527677	763.3248594714473	817.8880070602069	-281.4658680805287	765.7388372599659	810.238959996644	-290.115124024783
179	0.742	921.0129	906.651	56.2195	970.5241402418044	879.6899021628741	-6.4439866003727735	893.7650892177096	475.0573641700918	-78.59766365403387	927.7798610093405	102.7934575976183	-172.26522245434583	853.6191502833256	25.080313172572176	-14.195217048001213	879.2147377913485	904.8727121429663	130.57536396468757	820.9156181875095	502.55114283451235	230.9188596352782	760.6607879435662	71.66512842718589	294.3678996345663	633.5434087694464	-9.337261527814716	177.3019996595044	884.8096753916465	1035.3306223282605	5.663211295747753	836.5636811743785	1105.1642563460125	-41.02411259377995	781.096185192394	1172.449669484046	-91.36855185859503	720.5809687626049	1227.5531327454858	-142.34547005329114	655.3327970730711	1286.358156727164	-196.13591713464004	594.8504488513184	1339.8385324496046	-244.1074921982258	473.41690242812183	1432.0614655243837	-289.59595951645343	691.2921674551383	1262.626535047359	-199.3412235759709	727.3720923363396	1242.9708150207393	-292.7127841364531	732.1607090355358	1016.4216514165123	-253.99775843609447	745.8930000082701	866.3340280266457	-311.1337106375982	752.6649402032621	868.4551463736012	-325.54899982054496	745.6367289292837	863.8389424714121	-336.35629650671183	740.4560690457159	858.0640913942503	-342.74004284932977	735.8923162459582	851.059716038837	-347.0845303775698	753.6958539253744	859.2822166775593	-322.99902525986886	758.3411549781949	839.8327436473178	-335.92988479689626	753.9053756002688	827.3135694313204	-343.73791435317395	746.8111218647581	823.6826089858865	-347.8659204763693	738.0140891519271	823.4780473932092	-350.7927880134558	752.3911951971628	853.0443013905497	-319.3850374278952	756.2185800434063	830.6994913408352	-330.0429353804457	751.1814823562509	816.2798608682773	-338.04276819052797	742.5280778756933	811.5351627557574	-342.7733744275199	732.8566090329277	811.1343496176584	-345.8545331538559	751.4278388717184	849.1026198603965	-316.50897902677195	754.2467194571741	825.5650740313711	-323.5849904803708	749.6483369309267	812.2569244835978	-330.0090077065645	741.1909640474855	807.2873558886874	-334.2806968877815	732.0449777835014	806.7242956296575	-337.0396714319953	749.5769910813639	845.3666487247651	-312.7628689483868	751.2810315336953	821.3649146305672	-316.9718011804691	747.2614055601131	809.6567353864494	-321.22903107586984	740.9293420515071	805.5232634169078	-323.9157893687344	732.7335616979083	804.7317514946684	-326.11288558506277	662.5133061858719	1271.7665223584684	-155.97490553365068	627.6909790881425	1242.7447209952309	-64.26025708981406	707.8575456977744	1050.699837388088	-155.90862689435858	774.9742555422426	891.0960802114336	-235.32813756319953	762.9588900440837	895.3709502799989	-250.84988343206618	758.8755256481664	882.538038376089	-272.4783836129602	756.5480077270275	870.8559715198095	-287.0838099247661	755.0491962711006	858.768660407983	-298.86904872891427	762.8594184968547	886.7680711125679	-250.13049058604614	749.9285635326671	866.3076723252707	-273.25276802645743	745.4557549439963	847.5512688025852	-292.04884771035375	745.7421681531748	837.2343803521654	-303.7970670924207	748.0481244614882	829.601641382805	-313.56335675244094	764.9284115543304	879.7988883655503	-248.21222621265275	753.4338721750114	856.0740851195384	-269.726640845374	748.8737323082655	834.7482621188999	-289.91216784881505	749.3731390364158	821.8891934842711	-303.93012566375364	751.9710883049515	813.3372403916636	-314.5404659226391	766.6749735575595	875.4211290208291	-246.24107402739403	757.7576101753691	850.4285615679738	-263.7355368097488	754.1292626700834	831.0002024939159	-280.9637912959784	754.7948924180496	818.1501506966212	-294.29111394659617	757.3247715137138	809.8975894271902	-304.1755082940169	769.4183066009036	870.7803454986623	-243.50299029977566	762.774917316845	845.0697212146052	-257.7815146118376	760.4489664559383	828.3094332713067	-270.93089477907256	761.2147904038187	818.3547242100755	-280.3392254146354	763.6171617880253	810.7094661318017	-288.9152544077581
180	0.746	921.0129	906.651	56.2195	970.1382826266747	879.5331790072445	-6.560400211300489	893.4534452116304	474.8529963610819	-78.50097267895772	928.067886158277	102.74030690217205	-172.4265232935259	853.9231062167032	25.000983909894508	-14.362157783104873	879.5868463304907	905.0266364516222	130.69384276420317	821.3502089904139	502.72386069744607	231.1387000377906	760.8340358093512	71.848367437529	294.35761305626767	633.7983979959185	-9.240942260094286	177.26875677615342	884.8809778537218	1035.3485380752074	5.659521495400105	836.62889651283	1105.2189334333734	-40.967336012151215	781.1471072013388	1172.5496925498855	-91.2322414746594	720.6025823239701	1227.7041518759866	-142.10696316593095	655.3214998042358	1286.5598333039022	-195.78831885082184	594.812960393487	1340.0888069311716	-243.65831150291694	473.33280895993187	1432.2934442694473	-289.0398739129214	691.1623596738435	1262.7135442442514	-199.0290515504594	726.8655312695461	1242.8778999265962	-292.05524827817203	731.5629989990314	1016.9778541258903	-252.84090152331171	744.2237231253873	868.0745444043686	-309.6839447849104	751.0251933433954	870.3719933371971	-324.08866764297244	744.0501761724971	865.8155175067161	-334.82586345209603	738.8978708357399	860.0760934732483	-341.15633081127555	734.3503298366218	853.0959835494444	-345.4526125256727	752.0226704721546	861.2060983359095	-321.5260853476073	756.6514853253775	841.9578651808307	-334.3863432582138	752.2309738994181	829.5094977173126	-342.12221857369286	745.1692421220445	825.8739715097397	-346.2018207195049	736.4146588219926	825.6328609620646	-349.0862435245217	750.6962481424296	854.9411221779459	-317.9013637608463	754.4957657422386	832.7779780468642	-328.48459713183075	749.4725240595353	818.4313033134791	-336.40447194821525	740.8570227618632	813.6790251190565	-341.07610453845876	731.2313541292256	813.2372114276478	-344.11052248185126	749.7175925125091	850.9758850232813	-315.0197043772137	752.4972471636967	827.5827592359001	-322.02451178511313	747.9081542652086	814.3335123178344	-328.3777149702631	739.4858462747945	809.35412794596	-332.5919033420028	730.3822319140379	808.7513286347108	-335.3066608211099	747.8522133771605	847.2014148463853	-311.26768931984475	749.5101804309961	823.3108209202411	-315.40828887975533	745.4938054659874	811.641838734456	-319.60735797002116	739.185298217712	807.4973548651473	-322.2514837844908	731.0258719718893	806.6684184532367	-324.409005747571	662.6499140612641	1272.0520652793655	-155.66852951253983	628.2956477035871	1243.5097602765113	-63.99901415495258	708.1199659850233	1051.3254014129247	-155.01357828051422	773.6974695969495	891.7918044974748	-233.92305597776098	761.7199201870386	896.1970251040381	-249.34362368177918	757.6614944963311	883.445173628553	-270.7948395635017	755.3581730650119	871.8123654823786	-285.2740077871528	753.8853856174717	859.7599703513738	-296.9516098582253	761.6528980147094	887.5851821764536	-248.60990468648257	748.8354282213751	867.2626087768645	-271.5238500375463	744.4176570116994	848.576204023981	-290.14849387453376	744.7108325009374	838.2837725398845	-301.79405318074635	747.0038662534703	830.6584136729116	-311.47801922826807	763.735403867237	880.5904052579183	-246.690038818764	752.3587673592779	856.986199505546	-268.0003912794305	747.8600817618487	835.7329150633541	-287.9992792091986	748.3683101181357	822.9014994449982	-301.89359560464925	750.9524212071731	814.3567244725427	-312.4139582279587	765.4889297309121	876.1913008075527	-244.72327976962185	756.684176614317	851.2889949282045	-262.03929716328884	753.1106279927212	831.9197143174346	-279.10563540104874	753.7854108821066	819.0941402312184	-292.31409271147373	756.3025956914953	810.8472988394562	-302.11408060855183	768.2345674420807	871.5199922090591	-241.99466403801432	761.6969620680231	845.8742118785678	-256.11597470601544	759.4162992239392	829.1543919965567	-269.1376597073578	760.189488392211	819.2142300607813	-278.46024255169493	762.5810253378578	811.5721180331503	-286.96204349111497
181	0.75	921.0129	906.651	56.2195	969.7737984935399	879.3894974394883	-6.64744026640345	893.1433199623841	474.6677983232819	-78.38376338045394	928.350305826785	102.70471344723884	-172.55957585600686	854.2192504007355	24.934551041690867	-14.504115359522352	879.9357528340371	905.1671496808498	130.78328520569104	821.75557865226	502.8850258842224	231.3335235894333	760.9735492126656	72.01701454062884	294.30550519664877	634.0210428602286	-9.159391607729876	177.1922720443188	884.9600393172908	1035.367677229786	5.653361643952905	836.7073775495298	1105.274928188722	-40.91764798548305	781.2146376313729	1172.6475532923873	-91.11024504892806	720.6419624115917	1227.8478187024116	-141.8886014624211	655.3299054753509	1286.748633330126	-195.46785540983052	594.7976154046344	1340.3212846774736	-243.24333133053844	473.29233166225015	1432.512360240648	-288.5578576133532	691.0512767683267	1262.789258535786	-198.73920404349158	726.3590814612155	1242.7390869550773	-291.4398831647327	731.0154692079982	1017.494040081813	-251.641124042006	745.9633108392052	869.1677130745343	-306.725659925989	752.7873751720429	871.644922337273	-321.1179227503571	745.8617647268604	867.1477062588772	-331.7834714486416	740.7360514186039	861.4434869406239	-338.0596226176571	736.2039826984422	854.4875472588137	-342.30682065241615	753.7537213308487	862.4872788206675	-318.5425781216476	758.3627481189043	843.4455935418301	-331.32943500202566	753.9559591434924	831.0690676833957	-338.9915392166782	746.9257697106069	827.4276348840765	-343.0221214889361	738.2128124136478	827.1475164346158	-345.86384292575275	752.4079974518687	856.1952218307702	-314.90727693543084	756.1777703215474	834.2189196733464	-325.4132062880593	751.167079512302	819.9462895549309	-333.25140871619556	742.5884575233774	815.1848096852943	-337.8633323375279	733.0077623813206	814.699315545258	-340.85075347494734	751.415884427809	852.206318529365	-312.020215318484	754.1562258726494	828.9622346366468	-318.95159337189307	749.575607865411	815.7727918959255	-325.23250953973087	741.1875747388096	810.7820105182038	-329.38853059764244	732.1256291107832	810.136958164791	-332.0588213907513	749.5381994500027	848.3928100642719	-308.2626201147808	751.151401821897	824.6173756221276	-312.3330336757736	747.1381600047555	812.9882559283358	-316.47283459966513	740.8528872245743	808.8315688329501	-319.0738598302353	732.7293614957796	807.9629629120442	-321.1916148878447	662.805836166106	1272.3268470993087	-155.3896547123019	628.9248468530177	1244.265608944435	-63.76146576183895	708.3946186965663	1051.93077590217	-154.14359148627312	775.0241120819743	893.4909386260853	-230.8254222591994	763.089912419618	898.0167879031185	-246.15029646393793	759.0679680064876	885.3344177731574	-267.4241491837722	756.797095324176	873.742686685774	-281.77744453324	755.3573723100594	861.718267571073	-293.3480916083033	763.0561058300403	889.3946073958623	-245.40508035353412	750.3643209794695	869.1926087401401	-268.1214217083223	746.0125420501724	850.5643539475749	-286.5777339872316	746.3194542134611	840.2905394871276	-298.1189796411564	748.6054583020964	832.6687736250174	-307.71682694635405	765.152346171863	882.3745277618752	-243.48419100029662	753.905741512036	858.8742323499338	-264.6012726399447	749.4804324348132	837.6806369755355	-284.41693367843527	750.0058965901213	824.8698726658685	-298.18562479190604	752.5826487350579	816.328148265838	-308.6118695614702	766.9126590279411	877.9546869603578	-241.52201351722687	758.2311747236621	853.1282163006067	-258.6695466024925	754.7227843103583	833.8069539586062	-275.5769684930571	755.4148340460719	820.9991796665821	-288.66466015581204	757.9253943546842	812.7541805475739	-298.376350768996	769.6601943372443	873.254137113388	-238.80235868468156	763.2378440717714	847.6607045592883	-252.77546816140958	761.0106807946333	830.9727409860918	-265.6718495675674	761.797108584901	821.0423699694322	-274.9072955696612	764.1831444798294	813.4000711475476	-283.33142460357016
